<?xml version="1.0" encoding="utf-8"?>
<!-- Generator: Adobe Illustrator 23.0.0, SVG Export Plug-In . SVG Version: 6.00 Build 0)  -->
<svg version="1.1" id="Layer_1" xmlns="http://www.w3.org/2000/svg" xmlns:xlink="http://www.w3.org/1999/xlink" x="0px" y="0px"
	 viewBox="0 0 3000 2100" style="enable-background:new 0 0 3000 2100;" xml:space="preserve">
<style type="text/css">
	.st0{fill:#39B54A;}
	.st1{fill:#8DC63F;}
</style>
<g>
	<g>
		<polygon class="st0" points="1443.6,1499.61 1458.98,1499.61 1433.45,1546.66 1433.45,1588.43 1421.09,1588.43 1421.09,1546.66 
			1395.46,1499.61 1410.83,1499.61 1427.22,1530.02 		"/>
		<path class="st0" d="M1046.18,1499.61h50.36v15.63h-48.67c-0.38,0-0.56,0.31-0.56,0.88v20.15h40.78v15.57h-40.78v20.26
			c0,0.49,0.18,0.76,0.56,0.76h48.67v15.57h-50.36c-3.06,0-5.69-1.4-7.89-4.19c-2.21-2.81-3.31-6.12-3.31-9.99v-60.32
			c0-3.87,1.1-7.22,3.31-10.06C1040.49,1501.03,1043.12,1499.61,1046.18,1499.61z"/>
		<path class="st0" d="M1113.86,1499.61h50.36v15.63h-48.67c-0.36,0-0.54,0.31-0.54,0.88v19.37c0,0.5,0.18,0.77,0.54,0.77h40.82
			c2.16,0,4,0.97,5.54,2.95c1.55,1.96,2.31,4.32,2.31,6.99v28.03c0,3.87-1.1,7.18-3.31,9.99c-2.23,2.79-4.88,4.19-7.98,4.19h-50.25
			v-15.57h48.58c0.45,0,0.68-0.27,0.68-0.76v-19.39c0-0.58-0.23-0.86-0.68-0.86h-40.78c-2.14,0-4-0.97-5.53-2.92
			c-1.51-1.93-2.27-4.27-2.27-6.99v-28.02c0-3.87,1.08-7.22,3.29-10.06C1108.17,1501.03,1110.8,1499.61,1113.86,1499.61z"/>
		<polygon class="st0" points="1170.49,1499.61 1223.6,1499.61 1223.6,1515.24 1203.2,1515.24 1203.2,1588.43 1190.92,1588.43 
			1190.92,1515.24 1170.49,1515.24 		"/>
		<rect x="1268.22" y="1499.61" class="st0" width="12.28" height="88.82"/>
		<polygon class="st0" points="1338.87,1499.61 1351.17,1499.61 1351.17,1588.43 1339.37,1588.43 1301.9,1528.24 1301.9,1588.43 
			1289.61,1588.43 1289.61,1499.61 1301.29,1499.61 1338.87,1559.86 		"/>
		<path class="st0" d="M1515.12,1499.61h-39.09c-3.04,0-5.67,1.42-7.89,4.25c-2.2,2.84-3.29,6.19-3.29,10.06v60.32
			c0,3.87,1.1,7.18,3.29,9.99c2.21,2.79,4.84,4.19,7.89,4.19h39.09c3.08,0,5.74-1.4,7.96-4.19c2.23-2.81,3.33-6.12,3.33-9.99v-60.32
			c0-3.87-1.1-7.22-3.33-10.06C1520.86,1501.03,1518.19,1499.61,1515.12,1499.61z M1514.11,1572.1c0,0.49-0.23,0.76-0.7,0.76h-35.67
			c-0.36,0-0.54-0.27-0.54-0.76v-55.98c0-0.58,0.18-0.88,0.54-0.88h35.67c0.47,0,0.7,0.31,0.7,0.88V1572.1z"/>
		<path class="st0" d="M1584.34,1499.61h12.28v74.63c0,3.87-1.1,7.18-3.31,9.99c-2.23,2.79-4.88,4.19-7.98,4.19h-39.07
			c-3.06,0-5.69-1.4-7.89-4.19c-2.21-2.81-3.31-6.12-3.31-9.99v-74.63h12.33v72.49c0,0.49,0.2,0.76,0.56,0.76h35.69
			c0.47,0,0.7-0.27,0.7-0.76V1499.61z"/>
		<polygon class="st0" points="949.28,1499.61 961.56,1499.61 961.56,1588.43 949.77,1588.43 912.3,1528.24 912.3,1588.43 
			900,1588.43 900,1499.61 911.71,1499.61 949.28,1559.86 		"/>
		<path class="st0" d="M1647.34,1551.84h7.9c3.06,0,5.71-1.4,7.96-4.21c2.23-2.79,3.37-6.1,3.37-9.99v-23.71
			c0-3.87-1.13-7.22-3.37-10.06c-2.25-2.83-4.9-4.25-7.96-4.25h-50.25v88.82h12.3v-36.59h14.67l20.17,36.59h15.38L1647.34,1551.84z
			 M1617.29,1536.27v-21.03h36.28c0.43,0,0.65,0.31,0.65,0.88v19.37c0,0.5-0.22,0.77-0.65,0.77H1617.29z"/>
		<rect x="878.6" y="1499.61" class="st0" width="12.3" height="88.82"/>
		<polygon class="st0" points="1015.49,1499.61 1028.7,1499.61 1005.53,1588.43 991.23,1588.43 968.04,1499.61 981.3,1499.61 
			998.4,1564.59 		"/>
		<path d="M1725.23,1499.61h50.38v15.63h-48.68c-0.36,0-0.54,0.31-0.54,0.9v20.11h40.76v15.59h-40.76v20.24
			c0,0.5,0.18,0.76,0.54,0.76h48.68v15.59h-50.38c-3.04,0-5.67-1.4-7.89-4.19c-2.2-2.81-3.31-6.14-3.31-10.01v-60.3
			c0-3.87,1.12-7.22,3.31-10.06C1719.56,1501.02,1722.19,1499.61,1725.23,1499.61z"/>
		<polygon points="1831.1,1499.61 1843.39,1499.61 1843.39,1588.43 1831.6,1588.43 1794.12,1528.24 1794.12,1588.43 
			1781.82,1588.43 1781.82,1499.61 1793.52,1499.61 1831.1,1559.86 		"/>
		<path d="M1863.45,1499.61h50.36v15.63h-48.67c-0.38,0-0.56,0.31-0.56,0.9v20.11h40.76v15.59h-40.76v20.24
			c0,0.5,0.18,0.76,0.56,0.76h48.67v15.59h-50.36c-3.06,0-5.69-1.4-7.89-4.19c-2.21-2.81-3.31-6.14-3.31-10.01v-60.3
			c0-3.87,1.1-7.22,3.31-10.06C1857.76,1501.02,1860.39,1499.61,1863.45,1499.61z"/>
		<path d="M1969.8,1551.84c3.04,0,5.69-1.4,7.94-4.2c2.23-2.81,3.35-6.14,3.35-10.01v-23.71c0-3.87-1.12-7.22-3.35-10.06
			c-2.25-2.84-4.9-4.25-7.94-4.25h-50.27v88.82h12.3v-36.59h14.67l20.16,36.59h15.38l-20.17-36.59H1969.8z M1931.83,1536.25v-21.01
			h36.28c0.43,0,0.65,0.31,0.65,0.9v19.35c0,0.5-0.22,0.76-0.65,0.76H1931.83z"/>
		<path d="M2001.55,1499.61h50.38v15.63h-48.68c-0.36,0-0.54,0.31-0.54,0.9v55.94c0,0.5,0.18,0.76,0.54,0.76h36.39v-20.99h-23.78
			v-15.59h36.08v52.18h-50.38c-3.04,0-5.67-1.4-7.89-4.19c-2.2-2.81-3.31-6.14-3.31-10.01v-60.3c0-3.87,1.12-7.22,3.31-10.06
			C1995.88,1501.02,1998.5,1499.61,2001.55,1499.61z"/>
		<polygon points="2121.4,1499.61 2095.87,1546.66 2095.87,1588.43 2083.52,1588.43 2083.52,1546.66 2057.9,1499.61 
			2073.28,1499.61 2089.64,1530 2106.03,1499.61 		"/>
	</g>
	<g>
		<g>
			<path class="st0" d="M1906.19,1383c0,5.34-5.97,9.66-13.35,9.66h-166.4c-7.35,0-13.32-4.32-13.32-9.66
				c0-5.34,5.97-9.66,13.32-9.66h166.4C1900.22,1373.34,1906.19,1377.66,1906.19,1383z"/>
			<path class="st0" d="M1713.12,1289.53c0-5.34,5.97-9.66,13.32-9.66h166.4c7.38,0,13.35,4.32,13.35,9.66
				c0,5.34-5.97,9.66-13.35,9.66h-166.4C1719.09,1299.19,1713.12,1294.87,1713.12,1289.53z"/>
			<path class="st0" d="M1906.19,1336.25c0,5.34-5.97,9.69-13.35,9.69h-166.4c-7.35,0-13.32-4.34-13.32-9.69
				c0-5.32,5.97-9.66,13.32-9.66h166.4C1900.22,1326.59,1906.19,1330.93,1906.19,1336.25z"/>
			<path class="st0" d="M1286.88,1383c0,5.34-5.97,9.66-13.32,9.66h-166.4c-7.38,0-13.35-4.32-13.35-9.66
				c0-5.34,5.97-9.66,13.35-9.66h166.4C1280.91,1373.34,1286.88,1377.66,1286.88,1383z"/>
			<path class="st0" d="M1286.88,1336.25c0,5.34-5.97,9.69-13.32,9.69h-166.4c-7.38,0-13.35-4.34-13.35-9.69
				c0-5.32,5.97-9.66,13.35-9.66h166.4C1280.91,1326.59,1286.88,1330.93,1286.88,1336.25z"/>
			<path class="st0" d="M1093.81,1289.53c0-5.34,5.97-9.66,13.35-9.66h166.4c7.35,0,13.32,4.32,13.32,9.66
				c0,5.34-5.97,9.66-13.32,9.66h-166.4C1099.78,1299.19,1093.81,1294.87,1093.81,1289.53z"/>
		</g>
		<g>
			<path class="st0" d="M1396.78,949.93l83.09-48c-4.75,21.43,0.58,54.48-62.98,91.19c-7.2,4.16-14.4,7.74-21.57,11.04
				c0.18-0.05,0.36-0.11,0.56-0.16c-1.03,0.47-2.02,0.85-3.04,1.3c-2.05,0.95-4.11,1.82-6.18,2.68c-2.21,0.92-4.41,1.82-6.61,2.66
				c-2.07,0.79-4.11,1.58-6.12,2.32c-2.22,0.79-4.39,1.49-6.59,2.23c-1.98,0.67-4,1.33-5.98,1.94c-2.21,0.68-4.37,1.28-6.55,1.89
				c-1.91,0.54-3.85,1.1-5.74,1.6c-2.27,0.59-4.52,1.1-6.77,1.62c-1.73,0.4-3.49,0.86-5.2,1.22c-3.49,0.76-6.95,1.42-10.34,2.03
				c-1.91,0.34-3.78,0.61-5.67,0.92c-2.14,0.34-4.29,0.68-6.37,0.99c-1.76,0.23-3.46,0.45-5.17,0.65c-1.84,0.23-3.69,0.45-5.47,0.63
				c-1.71,0.18-3.35,0.31-5,0.47c-1.75,0.14-3.46,0.31-5.13,0.43c-1.58,0.11-3.1,0.2-4.59,0.29c-1.67,0.09-3.29,0.18-4.88,0.25
				c-1.44,0.05-2.84,0.09-4.25,0.14c-1.53,0.04-3.03,0.09-4.48,0.11c-1.3,0-2.58,0.02-3.8,0.02c-1.46,0-2.86,0-4.21-0.02
				c-1.1,0-2.2,0-3.24-0.02c-1.4-0.04-2.68-0.09-4-0.14c-0.88-0.02-1.78-0.04-2.59-0.07c-1.4-0.05-2.68-0.13-3.93-0.18
				c-0.54-0.05-1.15-0.07-1.69-0.09c-1.71-0.11-3.24-0.22-4.59-0.31c0.58-1.21,1.28-2.61,2.03-4.12c0.23-0.5,0.54-1.06,0.79-1.58
				c0.56-1.1,1.13-2.2,1.76-3.42c0.38-0.74,0.81-1.53,1.24-2.32c0.59-1.13,1.21-2.27,1.87-3.49c0.5-0.88,1.04-1.85,1.6-2.81
				c0.67-1.19,1.35-2.39,2.11-3.67c0.61-1.06,1.24-2.16,1.91-3.26c0.76-1.28,1.53-2.54,2.34-3.85c0.74-1.19,1.49-2.38,2.25-3.6
				c0.85-1.33,1.73-2.68,2.63-4.07c0.85-1.28,1.69-2.56,2.57-3.87c0.95-1.39,1.94-2.81,2.93-4.25c0.95-1.35,1.89-2.66,2.9-4.05
				c1.04-1.48,2.18-2.95,3.31-4.45c1.01-1.4,2.03-2.75,3.13-4.16c1.26-1.64,2.63-3.29,3.96-4.95c1.3-1.58,2.57-3.17,3.93-4.77
				c2.18-2.56,4.37-5.13,6.7-7.69c1.19-1.31,2.47-2.63,3.69-3.92c1.57-1.66,3.11-3.35,4.75-5.01c1.39-1.4,2.86-2.81,4.29-4.21
				c1.6-1.55,3.22-3.13,4.88-4.7c1.53-1.4,3.13-2.81,4.72-4.21c1.71-1.53,3.42-3.06,5.2-4.56c1.67-1.4,3.35-2.75,5.06-4.14
				c1.84-1.51,3.73-2.95,5.64-4.45c1.76-1.31,3.56-2.68,5.4-4c0.88-0.65,1.73-1.33,2.65-1.96c-0.14,0.14-0.29,0.27-0.43,0.4
				c6.46-4.57,13.18-9,20.35-13.14c66.04-38.13,91.48-13.83,112.87-8.25l-140.78,46.9l25.17,20.42l-48.47,43.66l109.31-33.67
				L1396.78,949.93z"/>
			<path class="st0" d="M1752.35,1029.24c-1.35,0.11-2.92,0.2-4.63,0.31c-0.5,0.04-1.12,0.07-1.67,0.11
				c-1.26,0.05-2.5,0.13-3.91,0.18c-0.85,0.05-1.75,0.05-2.63,0.09c-1.28,0.04-2.58,0.09-3.96,0.11c-1.04,0.04-2.14,0.04-3.24,0.05
				h-4.21c-1.26,0-2.52-0.02-3.8-0.02c-1.49-0.04-2.99-0.05-4.52-0.11c-1.39-0.05-2.79-0.11-4.25-0.16
				c-1.57-0.07-3.19-0.14-4.84-0.25c-1.53-0.07-3.04-0.18-4.63-0.27c-1.67-0.13-3.42-0.29-5.15-0.45c-1.64-0.13-3.24-0.27-4.93-0.45
				c-1.84-0.18-3.69-0.41-5.58-0.63c-1.69-0.22-3.37-0.41-5.11-0.65c-2.05-0.29-4.23-0.63-6.36-0.99c-1.93-0.31-3.82-0.59-5.82-0.95
				c-3.35-0.61-6.73-1.24-10.21-1.98c-1.71-0.4-3.44-0.83-5.19-1.22c-2.23-0.54-4.48-1.04-6.79-1.64c-1.89-0.49-3.8-1.04-5.71-1.58
				c-2.2-0.63-4.37-1.22-6.57-1.91c-1.98-0.61-3.98-1.28-6-1.94c-2.16-0.72-4.36-1.46-6.55-2.25c-2.05-0.74-4.09-1.49-6.14-2.29
				c-2.18-0.88-4.41-1.76-6.63-2.68c-2.05-0.86-4.1-1.75-6.16-2.66c-1.03-0.45-2.03-0.83-3.06-1.31c0.2,0.04,0.38,0.09,0.59,0.18
				c-7.2-3.33-14.4-6.9-21.57-11.05c-66.04-38.12-57.72-72.32-63.59-93.64l111.02,98.49l5.09-32.01l62.06,20.15l-83.81-77.83
				l-5.13,32.01l-83.07-47.95c20.92-6.61,46.88-27.76,110.44,8.95c7.2,4.12,13.92,8.59,20.35,13.16c-0.14-0.14-0.27-0.27-0.43-0.43
				c0.92,0.67,1.76,1.33,2.66,2c1.84,1.31,3.62,2.65,5.4,4c1.91,1.46,3.78,2.92,5.62,4.43c1.71,1.37,3.42,2.75,5.08,4.16
				c1.76,1.49,3.49,3.01,5.2,4.54c1.58,1.4,3.17,2.81,4.7,4.23c1.66,1.53,3.28,3.1,4.88,4.68c1.42,1.4,2.92,2.81,4.32,4.21
				c1.6,1.66,3.13,3.29,4.66,4.95c1.26,1.31,2.56,2.65,3.75,3.98c2.54,2.77,4.93,5.56,7.26,8.32c1.13,1.33,2.14,2.63,3.22,3.93
				c1.4,1.75,2.81,3.47,4.12,5.19c1.08,1.39,2.07,2.7,3.1,4.07c1.15,1.53,2.3,3.02,3.37,4.52c0.99,1.37,1.91,2.7,2.86,4.05
				c0.99,1.42,2.02,2.86,2.95,4.27c0.9,1.3,1.71,2.57,2.56,3.85c0.9,1.37,1.78,2.74,2.63,4.05c0.79,1.22,1.53,2.43,2.25,3.6
				c0.81,1.33,1.6,2.61,2.34,3.89c0.67,1.1,1.33,2.2,1.94,3.24c0.72,1.24,1.4,2.45,2.07,3.62c0.56,0.99,1.1,1.96,1.6,2.92
				c0.7,1.19,1.28,2.32,1.89,3.46c0.41,0.77,0.85,1.57,1.22,2.29c0.65,1.24,1.22,2.36,1.78,3.49c0.27,0.5,0.54,1.04,0.79,1.53
				C1751.07,1026.65,1751.74,1028.05,1752.35,1029.24z"/>
			<path class="st1" d="M1552.77,757.14c0,76.25-33.81,86.13-49.3,101.87l29.76-145.37l-30.27,11.58l-13.61-63.79l-25.48,111.47
				l30.27-11.56l0.04,95.95c-16.19-14.84-47.48-26.76-47.48-100.14c0-8.3,0.49-16.33,1.22-24.2c-0.05,0.18-0.11,0.38-0.16,0.56
				c0.11-1.1,0.29-2.16,0.4-3.26c0.22-2.25,0.49-4.47,0.76-6.7c0.31-2.36,0.67-4.74,1.03-7.09c0.32-2.14,0.68-4.28,1.06-6.43
				c0.42-2.3,0.88-4.57,1.33-6.84c0.43-2.03,0.85-4.11,1.3-6.12c0.52-2.25,1.1-4.47,1.67-6.66c0.49-1.93,0.94-3.85,1.48-5.74
				c0.61-2.25,1.3-4.43,1.94-6.61c0.52-1.75,1.01-3.51,1.59-5.19c1.08-3.42,2.23-6.77,3.4-10.03c0.67-1.8,1.33-3.51,2-5.24
				c0.79-2.03,1.57-4.1,2.36-6.07c0.65-1.62,1.31-3.15,1.98-4.7c0.74-1.76,1.48-3.53,2.25-5.22c0.68-1.53,1.37-2.97,2.03-4.47
				c0.77-1.6,1.51-3.19,2.25-4.72c0.68-1.42,1.35-2.77,2.04-4.14c0.76-1.48,1.49-2.9,2.23-4.3c0.67-1.28,1.31-2.54,1.98-3.76
				c0.76-1.37,1.46-2.66,2.18-3.94c0.61-1.13,1.24-2.25,1.85-3.29c0.72-1.28,1.4-2.48,2.12-3.66c0.56-0.94,1.12-1.91,1.66-2.81
				c0.72-1.21,1.4-2.3,2.09-3.4c0.47-0.7,0.92-1.49,1.37-2.18c0.76-1.19,1.44-2.23,2.11-3.28c0.31-0.49,0.67-1.03,0.95-1.46
				c0.94-1.42,1.8-2.7,2.54-3.82c0.77,1.12,1.64,2.39,2.56,3.82c0.31,0.43,0.65,0.97,0.95,1.46c0.68,1.04,1.37,2.09,2.11,3.28
				c0.45,0.68,0.92,1.48,1.39,2.18c0.67,1.1,1.35,2.2,2.07,3.4c0.56,0.9,1.1,1.87,1.67,2.81c0.7,1.17,1.39,2.38,2.12,3.66
				c0.61,1.04,1.22,2.16,1.87,3.29c0.7,1.28,1.42,2.57,2.14,3.94c0.65,1.22,1.31,2.48,2.02,3.76c0.7,1.4,1.44,2.83,2.2,4.3
				c0.68,1.37,1.35,2.72,2.04,4.14c0.76,1.53,1.48,3.11,2.21,4.7c0.72,1.51,1.4,2.95,2.11,4.48c0.74,1.69,1.48,3.42,2.21,5.17
				c0.67,1.58,1.33,3.12,1.98,4.75c0.79,1.96,1.58,4.03,2.36,6.07c0.67,1.73,1.35,3.44,2,5.24c1.17,3.26,2.3,6.61,3.44,10.03
				c0.54,1.67,1.03,3.44,1.55,5.19c0.67,2.18,1.33,4.36,1.98,6.61c0.5,1.89,0.99,3.85,1.48,5.76c0.56,2.2,1.12,4.39,1.62,6.64
				c0.47,2.02,0.88,4.09,1.31,6.12c0.45,2.27,0.92,4.54,1.35,6.84c0.38,2.14,0.72,4.28,1.04,6.43c0.38,2.36,0.72,4.74,1.03,7.09
				c0.27,2.23,0.54,4.45,0.76,6.7c0.13,1.1,0.29,2.16,0.4,3.26c-0.05-0.18-0.11-0.38-0.14-0.56
				C1552.25,740.81,1552.77,748.84,1552.77,757.14z"/>
			<path d="M1707.27,1189.63l-0.79,0.54c-20.24,13.54-43.37,20.42-66.62,20.42c-16.38,0-32.86-3.4-48.45-10.3
				c-38.13-16.83-64.6-51.51-70.76-92.67l-0.23-1.51l-10.69-71.69c-0.23-1.44-0.25-2.84-0.2-4.25c0-1.12,0.11-2.2,0.25-3.3
				c1.57-11.56,10.44-21.21,22.56-23.01c14.78-2.18,28.36,7.92,30.55,22.61l10.97,73.21c3.42,22.85,18.09,42.06,39.3,51.42
				c21.07,9.33,44,7.36,62.96-5.33l0.97-0.67c89.7-60.59,141.93-161.27,139.75-269.37c-1.32-66.37-23.42-129.78-63-182.53
				c-4-5.37-8.26-10.55-12.62-15.68c-1.04-1.22-2.11-2.45-3.17-3.67c-4.47-5.08-9.06-10.1-13.88-14.96
				c-58.15-58.35-135.03-91.54-216.52-93.44c-86.19-2.02-167.51,29.96-229.05,90.08c-5.42,5.29-10.55,10.8-15.52,16.38
				c-0.95,1.04-1.89,2.12-2.81,3.17c-4.95,5.74-9.76,11.6-14.28,17.61c-40.82,54.43-62.89,120.18-62.89,189.59
				c0,105.96,52.66,204.46,140.9,263.5c18.9,12.66,41.83,14.58,62.87,5.29c21.17-9.38,35.88-28.63,39.3-51.48l3.37-22.56l7.56-50.56
				c0.18-1.13,0.54-2.2,0.85-3.28c3.58-12.86,16.17-21.39,29.73-19.34c13.25,1.98,22.7,13.32,22.83,26.3c0.05,1.4,0,2.81-0.22,4.25
				l-0.4,2.63l-10.32,69.01l-0.23,1.51c-6.16,41.14-32.59,75.8-70.72,92.69c-37.67,16.64-80.5,12.98-114.54-9.78
				c-103.17-69.03-164.76-184.26-164.76-308.2c0-5.92,0.14-11.79,0.43-17.64c0.11-1.96,0.25-3.91,0.38-5.83
				c0.23-3.89,0.49-7.76,0.86-11.65c0.22-2.32,0.49-4.63,0.74-6.95c0.4-3.46,0.79-6.91,1.28-10.35c0.36-2.45,0.74-4.9,1.13-7.35
				c0.52-3.26,1.1-6.52,1.71-9.76c0.49-2.5,0.94-5.02,1.48-7.53c0.67-3.15,1.37-6.27,2.14-9.4c0.59-2.5,1.15-5.02,1.82-7.53
				c0.81-3.15,1.73-6.27,2.63-9.38c0.68-2.41,1.31-4.84,2.07-7.24c1.6-5.13,3.31-10.21,5.13-15.25c1.04-2.9,2.18-5.76,3.31-8.62
				c0.92-2.38,1.8-4.77,2.77-7.15c1.26-2.99,2.59-5.94,3.91-8.91c0.95-2.16,1.93-4.36,2.92-6.5c1.42-3.01,2.9-6.03,4.41-9.02
				c0.99-2.02,2.02-4,3.06-6c1.62-3.06,3.28-6.1,4.95-9.11c1.03-1.8,2.07-3.6,3.11-5.4c1.84-3.12,3.67-6.23,5.6-9.33
				c0.94-1.48,1.91-2.9,2.86-4.39c2.14-3.31,4.28-6.66,6.55-9.92c0.07-0.11,0.14-0.23,0.23-0.34c6-8.64,12.37-17.07,19.14-25.24
				c0,0,0,0,0.02-0.02c8.43-10.19,17.41-20.02,27.04-29.4c72-70.33,167.3-107.78,267.91-105.38
				c95.39,2.25,185.34,41.05,253.32,109.25c8.32,8.35,16.15,17,23.55,25.96c1.62,1.94,3.15,3.96,4.73,5.92
				c1.89,2.39,3.8,4.79,5.64,7.22c1.64,2.18,3.19,4.36,4.81,6.59c1.66,2.29,3.33,4.61,4.95,6.97c1.55,2.25,3.02,4.54,4.54,6.81
				c1.53,2.38,3.06,4.75,4.57,7.13c1.42,2.32,2.83,4.64,4.21,6.97c1.44,2.45,2.88,4.93,4.25,7.4c1.33,2.32,2.61,4.64,3.89,7
				c1.39,2.59,2.7,5.22,4.03,7.85c1.15,2.27,2.31,4.56,3.39,6.84c1.4,2.92,2.72,5.87,4.03,8.84c0.94,2.03,1.87,4.09,2.77,6.18
				c2.09,4.92,4.07,9.9,5.94,14.91c0.5,1.37,0.97,2.81,1.46,4.18c1.37,3.82,2.7,7.63,3.96,11.47c0.65,2.07,1.24,4.14,1.87,6.19
				c0.97,3.24,1.94,6.46,2.84,9.74c0.58,2.21,1.15,4.47,1.71,6.7c0.81,3.15,1.58,6.32,2.29,9.47c0.52,2.3,1.01,4.57,1.46,6.88
				c0.67,3.19,1.26,6.41,1.84,9.61c0.4,2.27,0.79,4.56,1.15,6.84c0.54,3.31,0.99,6.66,1.42,10.03c0.29,2.18,0.58,4.34,0.83,6.54
				c0.4,3.71,0.72,7.44,1.03,11.16c0.14,1.84,0.34,3.67,0.45,5.53c0.38,5.58,0.63,11.18,0.74,16.8
				C1873.14,1001.06,1812.11,1118.81,1707.27,1189.63z"/>
			<path d="M1633.63,1266.51v79.56c0,59.13-48.09,107.24-107.22,107.24h-52.83c-56.44,0-102.72-43.88-106.8-99.3
				c-0.05-0.32-0.13-0.67-0.16-0.99c-0.02-0.31-0.04-0.65-0.07-0.95c-0.02-0.32-0.02-0.63-0.05-0.94c-0.07-1.69-0.13-3.35-0.13-5.06
				v-79.56c0-11.51,9.34-20.85,20.83-20.85c11.52,0,20.85,9.34,20.85,20.85v79.56c0,36.15,29.42,65.55,65.54,65.55h52.83
				c16.91,0,32.32-6.43,43.97-16.98c11.63-10.51,19.48-25.17,21.21-41.63c0.05-0.31,0.05-0.65,0.07-0.95
				c0.04-0.32,0.04-0.63,0.05-0.94c0.13-1.69,0.25-3.35,0.25-5.06v-79.56c0-11.51,9.33-20.85,20.83-20.85
				C1624.3,1245.66,1633.63,1255,1633.63,1266.51z"/>
			<path class="st0" d="M1430.75,1289.86c0-11.51,9.35-20.83,20.85-20.83l96.83,0.04c11.52,0.02,20.85,9.34,20.81,20.85
				c0,11.5-9.31,20.83-20.81,20.83l-96.85-0.04c-1.33,0-2.63-0.13-3.91-0.38C1438.03,1308.53,1430.75,1300.05,1430.75,1289.86z"/>
			<path class="st0" d="M1569.24,1352.35c0,11.5-9.31,20.85-20.81,20.83l-96.85-0.04c-1.33,0-2.63-0.13-3.91-0.36
				c-9.65-1.84-16.93-10.3-16.93-20.47c0-11.5,9.35-20.81,20.85-20.81l96.83,0.02C1559.95,1331.54,1569.28,1340.86,1569.24,1352.35z
				"/>
		</g>
	</g>
</g>
</svg>
